<?xml version="1.0" standalone="no"?>
<!DOCTYPE svg PUBLIC "-//W3C//DTD SVG 20010904//EN"
 "http://www.w3.org/TR/2001/REC-SVG-20010904/DTD/svg10.dtd">
<svg version="1.0" xmlns="http://www.w3.org/2000/svg"
 width="600.000000pt" height="600.000000pt" viewBox="0 0 600.000000 600.000000"
 preserveAspectRatio="xMidYMid meet">
<g transform="translate(0.000000,600.000000) scale(0.100000,-0.100000)"
fill="#000000" stroke="none">
<path d="M2828 5393 c7 -3 16 -2 19 1 4 3 -2 6 -13 5 -11 0 -14 -3 -6 -6z"/>
<path d="M2785 5380 c-3 -6 1 -7 9 -4 18 7 21 14 7 14 -6 0 -13 -4 -16 -10z"/>
<path d="M2835 5360 c-16 -4 -48 -16 -70 -26 -22 -10 -44 -17 -48 -16 -5 2 -6
-1 -3 -6 3 -5 -12 -17 -34 -27 -22 -10 -40 -21 -40 -25 0 -3 -22 -17 -50 -31
-27 -13 -50 -28 -50 -32 0 -5 -4 -5 -10 -2 -5 3 -10 2 -10 -4 0 -5 -10 -13
-22 -17 -13 -4 -40 -18 -60 -31 -21 -13 -38 -20 -38 -16 0 5 -6 1 -13 -7 -10
-13 -101 -64 -116 -66 -3 0 -24 -8 -46 -18 -77 -34 -195 -75 -195 -68 0 4 -4
3 -8 -3 -14 -19 -113 -66 -125 -59 -7 4 -9 4 -5 -1 4 -4 -16 -19 -45 -33 -29
-14 -55 -30 -58 -35 -4 -5 -11 -7 -17 -3 -5 3 -12 -1 -16 -9 -5 -14 -73 -50
-89 -46 -5 1 -6 -3 -2 -9 3 -5 2 -10 -4 -10 -5 0 -16 -6 -23 -13 -7 -7 -26
-21 -42 -31 -137 -87 -345 -301 -471 -481 -27 -38 -52 -72 -56 -75 -3 -3 -9
-15 -13 -28 -4 -12 -11 -20 -16 -17 -4 3 -11 -2 -14 -11 -3 -8 -2 -13 3 -10 5
3 -11 -34 -35 -82 -24 -48 -44 -94 -44 -102 0 -8 -9 -30 -20 -47 -11 -18 -17
-33 -13 -33 3 0 -2 -10 -13 -22 -10 -12 -13 -18 -7 -14 16 9 7 -44 -14 -91 -8
-18 -12 -37 -8 -42 3 -6 1 -11 -4 -11 -14 0 -15 -67 -1 -75 5 -3 7 -12 4 -20
-5 -12 -10 -12 -32 3 -15 9 -33 23 -41 31 -22 20 -155 6 -193 -21 -16 -11 -32
-18 -35 -15 -3 3 -16 -4 -28 -16 -13 -12 -48 -42 -78 -67 -58 -48 -60 -51 -96
-125 -13 -28 -28 -53 -33 -56 -6 -4 -11 -24 -12 -45 -6 -91 -6 -90 -16 -74 -7
11 -10 4 -10 -27 0 -41 14 -65 23 -41 3 7 6 -1 6 -18 1 -17 8 -48 16 -68 8
-20 15 -38 15 -41 0 -3 0 -9 0 -15 0 -5 14 -23 30 -40 17 -17 27 -36 24 -42
-4 -7 -2 -8 4 -4 7 4 12 2 12 -3 0 -6 7 -11 15 -11 8 0 15 -4 15 -8 0 -5 11
-15 25 -22 14 -7 25 -20 26 -29 0 -10 2 -11 6 -4 3 9 11 8 30 -4 14 -9 36 -18
50 -19 14 -2 30 -7 34 -11 5 -5 40 -6 79 -3 l70 5 -6 -60 c-4 -33 -11 -65 -16
-71 -13 -18 -12 -262 2 -279 6 -7 12 -38 13 -68 1 -30 8 -61 15 -70 10 -11 10
-16 1 -19 -8 -3 -7 -8 3 -19 8 -8 13 -20 10 -27 -2 -6 1 -12 8 -12 6 0 8 -4 5
-10 -3 -5 -1 -10 5 -10 7 0 10 -7 6 -15 -3 -8 -2 -15 3 -15 7 0 22 -36 18 -43
-1 -1 6 -13 15 -26 9 -13 14 -31 11 -40 -4 -9 -3 -13 2 -9 10 10 34 -22 35
-45 0 -10 5 -15 10 -12 6 3 10 1 10 -4 0 -6 8 -19 18 -30 35 -38 67 -82 67
-94 0 -6 7 -12 15 -12 8 -1 14 -7 12 -14 -1 -7 2 -10 8 -6 5 3 10 0 10 -8 0
-7 6 -14 14 -14 19 0 75 -45 75 -60 1 -7 7 -12 14 -10 6 1 11 -4 10 -10 -2 -7
4 -13 13 -13 9 0 23 -8 31 -17 8 -10 11 -12 7 -4 -5 9 2 8 19 -5 15 -10 27
-22 27 -26 0 -5 7 -8 16 -8 8 0 13 -4 10 -9 -3 -5 8 -11 25 -15 20 -4 28 -10
23 -17 -4 -8 -3 -9 5 -5 6 4 14 0 17 -8 3 -9 10 -14 14 -11 12 8 102 -34 96
-44 -3 -5 3 -11 14 -14 11 -3 18 -1 14 4 -8 14 1 11 46 -12 22 -12 40 -26 40
-33 0 -7 4 -6 9 3 7 11 11 10 20 -5 6 -11 11 -15 11 -10 0 4 10 2 23 -6 12 -8
30 -14 40 -12 9 1 15 -1 12 -6 -3 -4 4 -10 15 -13 12 -3 18 -1 14 5 -4 7 0 7
12 0 11 -5 37 -13 59 -17 22 -3 61 -17 87 -30 27 -13 48 -22 48 -18 0 3 7 0
15 -7 11 -9 18 -10 28 -1 8 6 16 8 19 6 6 -6 20 -10 98 -27 30 -7 57 -15 60
-18 3 -3 16 -6 30 -7 59 -3 156 -16 165 -23 6 -4 30 -8 55 -9 25 -1 61 -5 80
-8 19 -2 48 -4 63 -4 18 0 25 -4 21 -11 -5 -8 11 -9 56 -5 42 3 59 2 49 -4 -9
-6 20 -9 86 -9 133 0 140 0 287 4 70 1 125 -1 123 -4 -5 -8 172 -2 195 7 8 3
30 5 49 4 22 -2 31 1 26 8 -4 8 6 10 34 5 27 -4 46 -2 56 6 11 9 15 9 15 1 0
-8 6 -9 18 -3 9 5 32 10 50 10 18 0 39 5 46 11 18 15 86 21 86 7 0 -8 2 -8 8
0 4 6 18 15 31 19 18 6 22 4 15 -6 -7 -12 -5 -12 9 -1 9 8 21 11 26 7 6 -3 21
-1 33 6 35 19 87 28 90 17 2 -6 11 -3 20 6 18 18 33 22 23 6 -3 -6 1 -7 9 -4
9 3 16 10 16 15 0 5 5 9 11 9 5 0 7 -4 4 -10 -3 -6 1 -7 9 -4 9 3 16 10 16 14
0 5 9 6 20 3 12 -3 20 0 20 6 0 7 5 9 10 6 6 -3 10 -1 10 6 0 8 4 8 15 -1 12
-10 15 -10 15 0 0 7 7 10 16 6 10 -4 13 -2 8 6 -5 8 -2 9 10 5 10 -4 15 -3 11
3 -3 6 5 10 18 10 13 0 27 3 31 7 11 12 76 31 76 23 0 -5 9 -6 20 -3 11 3 17
10 14 15 -3 5 2 9 12 8 34 -4 45 0 38 12 -5 7 -3 8 6 3 8 -5 18 -1 26 10 7 10
20 15 29 12 9 -4 15 -1 15 7 0 8 10 17 23 21 12 4 25 8 30 10 4 1 16 3 28 4
11 0 18 5 15 10 -7 11 22 23 36 14 6 -3 9 -2 5 3 -6 10 158 111 174 107 5 -2
8 3 6 10 -1 6 6 11 15 11 10 -1 16 2 13 6 -7 11 61 61 70 52 5 -4 6 -2 2 4 -6
11 122 141 136 136 5 -1 6 2 3 7 -3 5 17 42 44 82 27 41 50 80 50 87 0 6 5 12
10 12 6 0 10 8 10 19 0 27 25 83 33 74 4 -3 7 8 7 25 0 17 5 34 10 37 6 3 10
19 10 36 0 16 5 29 10 29 6 0 10 12 10 28 -1 15 2 52 7 82 13 95 8 310 -8 310
-5 0 -9 12 -8 28 1 15 -2 41 -6 57 -8 27 -7 29 8 17 22 -18 202 -18 191 0 -3
4 1 8 9 8 8 0 20 7 27 15 7 9 15 13 17 11 3 -3 17 6 31 20 15 13 30 24 34 24
15 0 96 127 113 175 20 60 23 185 5 240 -22 69 -57 129 -105 183 -49 54 -126
112 -150 112 -8 0 -19 8 -24 18 -6 9 -11 13 -11 9 0 -4 -9 -3 -19 2 -21 12
-194 -6 -186 -19 3 -4 -2 -11 -11 -14 -13 -5 -14 -1 -9 24 4 16 -1 56 -9 90
-9 34 -16 70 -16 80 0 10 -7 31 -15 46 -8 16 -15 37 -15 47 0 11 -4 15 -12 11
-8 -5 -9 0 -6 14 4 12 2 22 -3 22 -5 0 -9 11 -9 25 0 14 -4 25 -9 25 -9 0 -26
48 -23 63 1 4 -5 10 -13 13 -8 4 -15 14 -15 24 0 10 -7 23 -15 30 -9 7 -14 19
-11 27 3 8 1 11 -4 8 -6 -3 -10 -2 -10 4 0 5 -16 33 -35 62 -19 29 -31 57 -28
63 3 6 3 8 -2 4 -11 -10 -56 52 -48 65 3 6 1 7 -5 3 -6 -3 -20 7 -32 24 -12
16 -18 30 -14 30 4 0 -6 12 -24 26 -17 15 -29 31 -26 36 3 4 1 7 -4 6 -5 -2
-40 29 -78 67 -103 106 -241 225 -260 225 -3 0 -26 16 -50 36 -24 20 -44 33
-44 29 0 -5 -8 -1 -17 7 -10 9 -49 32 -88 53 -38 21 -75 44 -81 51 -6 8 -14
11 -17 8 -3 -3 -38 10 -79 29 -40 19 -99 42 -130 51 -32 9 -58 20 -58 24 0 4
-14 9 -32 10 -17 2 -37 7 -43 12 -7 5 -15 7 -18 3 -4 -3 -12 -1 -19 5 -7 5
-40 15 -73 21 -33 6 -71 13 -85 16 -14 3 -43 8 -64 11 -22 3 -43 7 -48 10 -4
3 -62 5 -128 5 -66 0 -120 1 -120 4 0 2 24 27 54 55 56 53 62 70 34 109 -16
22 -21 23 -93 18 -42 -4 -81 -10 -88 -14 -6 -4 -18 -8 -27 -9 -8 -2 -33 -8
-55 -14 -22 -6 -45 -12 -52 -13 -7 -2 -16 -6 -19 -10 -4 -4 -15 -7 -25 -7 -10
0 -37 -10 -59 -21 -23 -12 -43 -20 -45 -17 -2 2 10 19 28 39 18 19 33 37 34
39 14 39 13 62 -4 84 -10 14 -20 25 -23 25 -3 -1 -18 -5 -35 -9z m35 -49 c0
-45 -78 -141 -155 -191 -61 -40 -79 -60 -55 -60 6 0 43 18 83 39 145 80 333
140 465 148 101 7 105 -3 31 -72 -53 -49 -179 -115 -261 -135 -27 -7 -48 -17
-48 -23 0 -16 91 -1 172 29 63 23 87 26 178 25 201 -4 474 -61 680 -142 117
-47 310 -151 407 -220 404 -286 666 -670 736 -1079 8 -44 10 -85 6 -92 -13
-20 -11 -108 2 -108 8 0 9 -16 4 -52 -17 -128 -7 -220 60 -531 31 -146 45
-335 34 -459 -21 -237 -98 -413 -251 -573 -106 -113 -222 -195 -401 -285 -408
-205 -934 -310 -1557 -310 -394 0 -730 42 -1085 135 -540 142 -909 399 -1050
733 -47 111 -67 209 -73 354 -5 148 7 265 50 463 48 224 59 292 56 363 -4 80
-13 65 -25 -38 l-8 -75 -27 46 c-56 96 -139 146 -225 136 -70 -8 -133 -80
-133 -153 0 -29 12 -26 17 5 10 71 59 111 134 111 52 0 108 -34 153 -93 32
-42 33 -49 2 -41 -52 13 -90 -44 -51 -76 14 -11 13 -14 -7 -24 -13 -7 -24 -22
-26 -38 -4 -32 38 -68 80 -68 20 0 28 -4 25 -12 -3 -7 -14 -48 -24 -92 l-18
-78 -67 6 c-94 9 -165 38 -229 95 -63 56 -105 132 -119 214 -27 165 75 351
235 432 52 26 71 30 142 30 97 0 130 -18 153 -83 8 -23 17 -42 21 -42 3 0 6
55 5 123 0 97 4 139 22 207 98 364 385 738 747 975 117 77 293 166 430 220
169 65 297 129 476 236 137 82 260 147 282 149 4 0 7 -13 7 -29z m2546 -1784
c242 -124 310 -436 136 -629 -63 -70 -172 -118 -269 -118 -38 0 -43 3 -49 28
-3 15 -12 52 -20 83 -8 31 -14 59 -14 62 0 2 14 7 32 11 60 12 86 57 52 90
-14 15 -14 17 0 32 35 35 6 79 -53 79 -23 0 -41 1 -41 3 0 12 62 80 94 104 72
52 181 28 206 -46 19 -59 -5 -151 -54 -204 -29 -33 -89 -62 -128 -63 -27 0
-29 -2 -13 -8 11 -5 27 -6 35 -4 116 37 172 113 174 240 1 71 0 73 -36 109
-31 32 -45 38 -91 42 -41 3 -63 -1 -94 -16 -42 -22 -97 -78 -115 -118 -16 -35
-28 -29 -28 14 0 20 -5 55 -10 77 -6 27 -6 50 2 72 9 25 9 38 -2 57 -29 55 19
118 103 135 48 10 128 -4 183 -32z m-249 -374 c-9 -9 -20 -14 -24 -10 -3 4 2
14 13 21 25 19 33 10 11 -11z m-4332 7 c3 -5 1 -10 -4 -10 -6 0 -11 5 -11 10
0 6 2 10 4 10 3 0 8 -4 11 -10z m-15 -37 c14 -9 26 -17 28 -18 2 -2 -5 -30
-15 -63 -17 -58 -19 -60 -48 -59 -33 3 -55 13 -55 27 0 17 32 40 56 40 32 0
30 10 -7 41 -50 41 -13 69 41 32z m4439 3 c13 -15 9 -19 -33 -41 -30 -15 -31
-35 -3 -35 13 0 32 -9 42 -20 17 -19 17 -20 -1 -26 -11 -3 -30 -10 -43 -15
-30 -12 -36 -3 -52 69 -10 48 -9 55 8 67 24 19 67 19 82 1z m-1896 -1933 c-7
-2 -19 -2 -25 0 -7 3 -2 5 12 5 14 0 19 -2 13 -5z"/>
<path d="M2795 5090 c-3 -5 -1 -10 4 -10 6 0 11 5 11 10 0 6 -2 10 -4 10 -3 0
-8 -4 -11 -10z"/>
<path d="M2760 5070 c-9 -6 -10 -10 -3 -10 6 0 15 5 18 10 8 12 4 12 -15 0z"/>
<path d="M3668 4973 c7 -3 16 -2 19 1 4 3 -2 6 -13 5 -11 0 -14 -3 -6 -6z"/>
<path d="M3765 4940 c3 -5 8 -10 11 -10 2 0 4 5 4 10 0 6 -5 10 -11 10 -5 0
-7 -4 -4 -10z"/>
<path d="M3835 4910 c3 -5 8 -10 11 -10 2 0 4 5 4 10 0 6 -5 10 -11 10 -5 0
-7 -4 -4 -10z"/>
<path d="M1625 4664 c-44 -36 -105 -90 -136 -119 -94 -90 -234 -268 -280 -357
-61 -118 -99 -198 -99 -210 0 -8 -4 -18 -9 -23 -9 -10 -44 -117 -55 -167 -11
-51 2 -29 19 30 89 321 283 603 593 860 35 28 59 52 55 52 -4 0 -44 -30 -88
-66z"/>
<path d="M4440 4566 c0 -6 141 -146 148 -146 7 0 -18 39 -28 42 -5 1 -34 27
-65 57 -30 29 -55 51 -55 47z"/>
<path d="M4620 4381 c0 -5 7 -12 16 -15 14 -5 15 -4 4 9 -14 17 -20 19 -20 6z"/>
<path d="M4656 4336 c3 -8 13 -17 22 -21 13 -5 13 -2 -3 15 -21 24 -26 25 -19
6z"/>
<path d="M4701 4283 c7 -12 15 -20 18 -17 3 2 -3 12 -13 22 -17 16 -18 16 -5
-5z"/>
<path d="M4751 4225 c0 -5 6 -21 14 -35 8 -14 14 -20 14 -15 0 6 -6 21 -14 35
-8 14 -14 21 -14 15z"/>
<path d="M1598 4059 c-111 -16 -244 -79 -333 -157 -51 -46 -38 -51 22 -9 147
105 371 165 523 140 98 -16 100 0 3 23 -64 15 -128 16 -215 3z"/>
<path d="M4260 4060 c-55 -10 -105 -29 -97 -36 3 -3 32 0 64 6 153 32 407 -34
543 -141 28 -22 50 -35 50 -30 0 15 -90 90 -145 122 -109 64 -302 100 -415 79z"/>
<path d="M4860 4041 c0 -6 4 -13 10 -16 6 -3 7 1 4 9 -7 18 -14 21 -14 7z"/>
<path d="M1637 3920 c-166 -30 -293 -96 -413 -215 -108 -107 -157 -194 -179
-320 -67 -374 133 -683 501 -779 87 -22 261 -21 350 2 131 35 220 86 320 186
105 106 153 188 184 317 24 103 27 268 5 354 -70 276 -302 451 -610 461 -60 1
-131 -1 -158 -6z m338 -61 c202 -61 340 -199 391 -391 20 -78 20 -78 -33 -60
-72 24 -551 23 -723 -1 -208 -29 -475 -96 -517 -129 -25 -20 -29 -1 -16 77 44
265 265 471 565 525 82 14 253 4 333 -21z m-40 -489 c-45 -86 29 -189 118
-164 61 18 98 112 62 160 -23 30 -18 34 34 34 l50 0 7 -56 c3 -30 5 -92 2
-138 -4 -69 -9 -91 -35 -136 -41 -71 -83 -110 -158 -146 -53 -26 -71 -29 -155
-29 -81 0 -103 4 -150 26 -79 37 -125 81 -161 155 -35 71 -48 173 -32 249 8
36 12 40 43 42 19 1 44 5 55 8 11 3 63 8 115 11 52 3 97 7 99 10 2 2 31 4 63
4 l59 0 -16 -30z m142 -2 c41 -38 27 -108 -24 -126 -77 -26 -140 71 -83 128
27 27 77 26 107 -2z m268 3 l40 -7 -2 -97 c-3 -179 -61 -316 -187 -442 -135
-136 -281 -195 -476 -195 -315 1 -558 176 -631 455 -10 39 -19 89 -19 112 l0
42 93 29 c93 30 328 87 337 83 3 -2 3 -8 1 -14 -33 -98 -12 -224 52 -319 73
-107 207 -167 344 -155 123 12 252 97 302 200 11 23 28 73 37 110 17 67 14
114 -11 195 -8 25 -12 25 120 3z"/>
<path d="M1800 3830 c0 -5 5 -10 10 -10 6 0 10 5 10 10 0 6 -4 10 -10 10 -5 0
-10 -4 -10 -10z"/>
<path d="M1855 3820 c3 -5 10 -10 16 -10 5 0 9 5 9 10 0 6 -7 10 -16 10 -8 0
-12 -4 -9 -10z"/>
<path d="M1910 3816 c0 -2 7 -7 16 -10 8 -3 12 -2 9 4 -6 10 -25 14 -25 6z"/>
<path d="M1404 3754 c-18 -14 -18 -15 6 -8 31 8 50 24 29 24 -8 0 -24 -7 -35
-16z"/>
<path d="M2070 3753 c0 -5 15 -17 33 -28 28 -17 30 -17 18 -1 -17 21 -51 40
-51 29z"/>
<path d="M1325 3704 c-41 -41 -90 -112 -83 -120 3 -3 17 15 31 39 14 24 43 60
64 80 20 20 34 37 31 37 -4 0 -23 -16 -43 -36z"/>
<path d="M2136 3701 c-3 -5 1 -11 9 -15 8 -3 15 -1 15 4 0 13 -18 22 -24 11z"/>
<path d="M2170 3674 c0 -12 37 -54 47 -54 4 0 -4 12 -18 28 -13 15 -25 29 -26
31 -2 2 -3 0 -3 -5z"/>
<path d="M2240 3560 c16 -28 33 -62 36 -75 3 -14 11 -28 16 -31 15 -10 0 32
-35 99 -16 31 -34 57 -38 57 -5 0 5 -23 21 -50z"/>
<path d="M1179 3433 c-5 -14 -8 -30 -6 -36 1 -5 8 7 14 27 13 42 7 49 -8 9z"/>
<path d="M2268 3364 c-4 -5 -3 -29 2 -52 16 -90 -11 -222 -61 -295 -34 -50
-112 -120 -161 -144 -117 -59 -230 -62 -355 -11 -79 32 -154 101 -193 177 -31
63 -50 165 -43 235 4 42 3 57 -5 52 -35 -21 -21 -189 23 -285 76 -163 274
-265 452 -232 183 34 330 180 363 361 14 77 -3 225 -22 194z"/>
<path d="M1150 3171 c0 -5 5 -13 10 -16 6 -3 10 -2 10 4 0 5 -4 13 -10 16 -5
3 -10 2 -10 -4z"/>
<path d="M1161 3114 c0 -11 3 -14 6 -6 3 7 2 16 -1 19 -3 4 -6 -2 -5 -13z"/>
<path d="M1181 3030 c0 -8 6 -28 14 -45 17 -39 18 -21 0 25 -7 19 -14 28 -14
20z"/>
<path d="M1223 2915 c18 -35 46 -73 47 -63 0 7 -45 77 -57 88 -3 3 1 -8 10
-25z"/>
<path d="M4145 3916 c-302 -58 -488 -266 -511 -573 -12 -159 30 -318 117 -448
131 -196 340 -305 584 -305 195 0 354 61 484 185 121 116 180 234 202 402 19
148 -20 300 -113 439 -86 129 -242 237 -408 284 -96 27 -260 34 -355 16z m340
-51 c33 -9 98 -35 145 -58 99 -48 215 -153 267 -239 41 -67 79 -176 87 -250
l6 -56 -42 20 c-104 50 -338 105 -578 134 -170 21 -552 15 -640 -9 -30 -9 -56
-14 -57 -13 -7 7 33 131 60 185 78 160 228 262 447 305 47 9 245 -3 305 -19z
m-505 -472 c0 -5 -7 -17 -15 -27 -8 -11 -15 -37 -15 -59 0 -55 52 -107 105
-107 77 0 135 107 90 166 -8 10 -15 23 -15 27 0 8 149 2 245 -9 113 -14 155
-21 162 -28 4 -4 8 -56 8 -114 0 -93 -3 -114 -24 -155 -75 -154 -251 -230
-418 -182 -104 30 -166 83 -215 182 -26 53 -32 79 -34 141 -3 86 8 151 28 163
16 11 98 12 98 2z m-130 -7 c0 -3 -4 -16 -10 -31 -27 -70 -13 -211 29 -293 48
-93 144 -166 252 -191 136 -32 282 17 373 126 64 76 101 222 77 308 -6 21 -9
41 -6 43 6 6 251 -54 320 -78 33 -12 70 -24 83 -27 22 -5 22 -9 16 -67 -16
-143 -81 -273 -186 -371 -124 -115 -280 -175 -455 -175 -277 0 -486 126 -601
363 -54 109 -72 185 -72 300 0 74 -5 70 95 86 61 11 85 12 85 7z m254 -17 c54
-43 22 -133 -48 -133 -71 0 -105 77 -56 129 29 31 68 32 104 4z"/>
<path d="M4210 3836 c0 -2 7 -7 16 -10 8 -3 12 -2 9 4 -6 10 -25 14 -25 6z"/>
<path d="M4256 3831 c-3 -4 6 -6 19 -3 14 2 25 6 25 8 0 8 -39 4 -44 -5z"/>
<path d="M4108 3823 c7 -3 16 -2 19 1 4 3 -2 6 -13 5 -11 0 -14 -3 -6 -6z"/>
<path d="M4350 3826 c0 -2 13 -6 29 -8 17 -2 28 -1 25 4 -5 8 -54 12 -54 4z"/>
<path d="M4428 3813 c7 -3 16 -2 19 1 4 3 -2 6 -13 5 -11 0 -14 -3 -6 -6z"/>
<path d="M4518 3788 c5 -5 16 -8 23 -6 8 3 3 7 -10 11 -17 4 -21 3 -13 -5z"/>
<path d="M3964 3777 c-11 -7 -36 -30 -55 -52 -19 -22 -37 -42 -40 -45 -14 -13
-70 -122 -65 -127 3 -4 6 -2 6 4 0 25 102 164 145 197 47 35 51 48 9 23z"/>
<path d="M4560 3772 c1 -9 70 -42 70 -33 0 4 -16 15 -35 24 -19 9 -35 13 -35
9z"/>
<path d="M4723 3657 c12 -13 24 -22 26 -20 6 4 -30 43 -40 43 -5 0 2 -10 14
-23z"/>
<path d="M4836 3497 c3 -10 9 -15 12 -12 3 3 0 11 -7 18 -10 9 -11 8 -5 -6z"/>
<path d="M4870 3401 c0 -5 5 -13 10 -16 6 -3 10 -2 10 4 0 5 -4 13 -10 16 -5
3 -10 2 -10 -4z"/>
<path d="M4886 3357 c3 -10 9 -15 12 -12 3 3 0 11 -7 18 -10 9 -11 8 -5 -6z"/>
<path d="M3785 3341 c-9 -41 -9 -138 0 -191 12 -73 60 -164 118 -220 240 -235
627 -129 713 195 18 67 18 166 -1 191 -13 17 -14 12 -8 -46 15 -173 -76 -333
-232 -406 -38 -18 -94 -35 -123 -38 -65 -8 -173 14 -238 47 -64 32 -148 122
-182 194 -25 53 -27 68 -27 181 0 119 -7 152 -20 93z"/>
<path d="M3717 3308 c-2 -18 -1 -40 4 -48 5 -10 8 1 9 33 0 55 -6 61 -13 15z"/>
<path d="M3722 3130 c0 -19 2 -27 5 -17 2 9 2 25 0 35 -3 9 -5 1 -5 -18z"/>
<path d="M1020 3665 c0 -19 2 -35 4 -35 2 0 6 16 8 35 2 19 0 35 -4 35 -4 0
-8 -16 -8 -35z"/>
<path d="M5002 3665 c0 -16 2 -22 5 -12 2 9 2 23 0 30 -3 6 -5 -1 -5 -18z"/>
<path d="M5011 3593 c-1 -23 3 -44 7 -47 4 -2 6 12 4 32 -5 56 -10 62 -11 15z"/>
<path d="M1011 3584 c0 -11 3 -14 6 -6 3 7 2 16 -1 19 -3 4 -6 -2 -5 -13z"/>
<path d="M1011 3544 c0 -11 3 -14 6 -6 3 7 2 16 -1 19 -3 4 -6 -2 -5 -13z"/>
<path d="M1002 3460 c0 -14 2 -19 5 -12 2 6 2 18 0 25 -3 6 -5 1 -5 -13z"/>
<path d="M870 3388 c0 -20 5 -40 10 -43 13 -8 13 45 0 65 -7 11 -10 6 -10 -22z"/>
<path d="M1001 3404 c0 -11 3 -14 6 -6 3 7 2 16 -1 19 -3 4 -6 -2 -5 -13z"/>
<path d="M987 3153 c-3 -5 -8 -32 -11 -61 -3 -30 -9 -58 -12 -63 -3 -5 -8 -22
-10 -37 -3 -15 -14 -71 -24 -126 -11 -54 -20 -115 -19 -135 1 -22 6 -6 14 44
7 44 22 125 35 180 21 98 39 205 34 205 -2 0 -5 -3 -7 -7z"/>
<path d="M491 3149 c-4 -36 70 -159 97 -159 6 0 12 -4 12 -10 0 -5 7 -10 16
-10 9 0 -3 14 -27 33 -46 35 -50 40 -78 107 -11 25 -20 42 -20 39z"/>
<path d="M5052 3020 c0 -14 2 -19 5 -12 2 6 2 18 0 25 -3 6 -5 1 -5 -13z"/>
<path d="M5060 2970 c0 -11 4 -20 9 -20 5 0 7 9 4 20 -3 11 -7 20 -9 20 -2 0
-4 -9 -4 -20z"/>
<path d="M2830 2943 c-84 -15 -196 -51 -187 -60 3 -2 36 5 74 16 37 10 93 24
124 31 96 19 317 14 409 -10 154 -39 211 -41 78 -2 -149 44 -338 53 -498 25z"/>
<path d="M3420 2893 c0 -5 23 -21 51 -38 175 -103 281 -310 249 -487 -24 -131
-89 -219 -199 -272 -61 -29 -74 -31 -171 -31 -89 0 -113 4 -157 24 -55 24
-142 107 -145 138 -3 27 -5 70 -6 146 -3 101 -18 81 -27 -35 -8 -117 -17 -139
-76 -192 -60 -55 -120 -79 -211 -84 -91 -5 -218 20 -244 49 -10 11 -22 19 -28
19 -15 0 -94 119 -111 166 -49 143 -12 307 99 440 21 25 72 68 113 94 78 51
84 73 11 41 -157 -70 -278 -256 -281 -431 -1 -143 48 -238 175 -333 90 -67
152 -91 239 -90 l65 0 18 -61 c48 -163 79 -186 247 -186 132 0 162 14 202 91
15 30 33 77 39 106 l12 51 61 0 c71 0 162 29 212 69 19 15 45 34 58 41 34 18
81 75 110 132 103 203 -12 505 -233 610 -67 32 -72 34 -72 23z m-384 -719 c-5
-13 -10 -14 -18 -6 -6 6 -8 18 -4 28 5 13 10 14 18 6 6 -6 8 -18 4 -28z m-13
-280 c15 -15 18 6 20 135 l2 132 20 -24 c31 -37 85 -73 140 -92 61 -23 59 -21
49 -37 -5 -7 -20 -44 -34 -82 -35 -94 -56 -108 -165 -114 -100 -5 -168 10
-189 43 -8 12 -23 49 -34 81 -11 32 -23 66 -27 76 -5 12 1 18 24 23 41 9 146
78 163 107 11 20 14 7 18 -109 3 -72 8 -135 13 -139z"/>
<path d="M2885 2025 c-16 -8 -23 -14 -14 -15 8 0 24 7 35 15 23 18 18 18 -21
0z"/>
<path d="M5091 2844 c0 -11 3 -14 6 -6 3 7 2 16 -1 19 -3 4 -6 -2 -5 -13z"/>
<path d="M3385 2829 l-30 -8 33 3 c17 1 32 -1 32 -6 0 -4 9 -8 20 -8 11 0 24
-8 27 -17 4 -9 15 -25 26 -36 17 -17 19 -18 14 -3 -4 10 -7 21 -7 25 0 8 -73
62 -81 60 -2 -1 -17 -5 -34 -10z"/>
<path d="M5101 2794 c0 -11 3 -14 6 -6 3 7 2 16 -1 19 -3 4 -6 -2 -5 -13z"/>
<path d="M3428 2768 c5 -5 16 -8 23 -6 8 3 3 7 -10 11 -17 4 -21 3 -13 -5z"/>
<path d="M2664 2728 c-8 -27 11 -42 83 -63 36 -11 67 -29 93 -55 47 -47 60
-50 60 -12 0 36 -58 106 -111 132 -21 11 -56 20 -78 20 -32 0 -41 -4 -47 -22z
m122 -28 c23 -12 45 -28 48 -36 3 -9 3 -14 -1 -12 -9 4 -97 44 -128 58 -17 8
-16 9 9 9 16 1 49 -8 72 -19z"/>
<path d="M3280 2734 c-63 -27 -120 -96 -120 -144 0 -31 22 -24 71 23 29 28 63
48 100 60 58 18 79 43 56 66 -15 15 -66 13 -107 -5z m27 -43 c-32 -15 -63 -33
-69 -39 -21 -21 -32 -13 -12 9 22 26 91 59 119 58 11 0 -5 -12 -38 -28z"/>
<path d="M2445 2689 c-4 -6 -5 -12 -2 -15 2 -3 7 2 10 11 7 17 1 20 -8 4z"/>
<path d="M3611 2613 c30 -59 41 -113 41 -190 0 -24 4 -43 9 -43 12 0 3 129
-12 179 -7 23 -18 46 -26 52 -7 6 -13 17 -13 24 0 7 -6 18 -14 24 -8 7 -1 -14
15 -46z"/>
<path d="M906 2634 c-8 -22 -7 -82 2 -87 4 -3 7 19 7 49 0 30 -1 54 -1 54 -1
0 -5 -7 -8 -16z"/>
<path d="M2412 2625 c-17 -37 -14 -45 4 -12 9 16 14 31 11 33 -2 2 -9 -7 -15
-21z"/>
<path d="M2740 2630 c8 -5 24 -10 34 -10 26 0 18 6 -19 14 -22 5 -26 4 -15 -4z"/>
<path d="M5120 2531 c0 -17 5 -31 10 -31 6 0 10 11 10 24 0 14 -4 28 -10 31
-6 4 -10 -7 -10 -24z"/>
<path d="M2381 2534 c0 -11 3 -14 6 -6 3 7 2 16 -1 19 -3 4 -6 -2 -5 -13z"/>
<path d="M2372 2490 c0 -14 2 -19 5 -12 2 6 2 18 0 25 -3 6 -5 1 -5 -13z"/>
<path d="M909 2468 c4 -28 6 -29 9 -9 2 13 0 27 -5 32 -6 6 -7 -3 -4 -23z"/>
<path d="M2464 2476 c-6 -17 2 -36 17 -36 12 0 12 37 -1 45 -6 3 -13 -1 -16
-9z"/>
<path d="M5123 2445 c0 -27 2 -38 4 -22 2 15 2 37 0 50 -2 12 -4 0 -4 -28z"/>
<path d="M2365 2449 c-4 -6 -5 -12 -2 -15 2 -3 7 2 10 11 7 17 1 20 -8 4z"/>
<path d="M2617 2454 c-8 -8 1 -24 14 -24 5 0 9 7 9 15 0 15 -12 20 -23 9z"/>
<path d="M3425 2450 c-8 -13 4 -32 16 -25 12 8 12 35 0 35 -6 0 -13 -4 -16
-10z"/>
<path d="M3575 2450 c-8 -13 4 -32 16 -25 12 8 12 35 0 35 -6 0 -13 -4 -16
-10z"/>
<path d="M912 2410 c0 -14 4 -36 8 -50 6 -20 8 -21 8 -5 0 11 -4 34 -8 50 -7
27 -8 27 -8 5z"/>
<path d="M2367 2399 c4 -13 8 -18 11 -10 2 7 -1 18 -6 23 -8 8 -9 4 -5 -13z"/>
<path d="M5111 2374 c0 -11 3 -14 6 -6 3 7 2 16 -1 19 -3 4 -6 -2 -5 -13z"/>
<path d="M2371 2359 c-2 -29 29 -102 57 -138 15 -19 32 -44 39 -55 7 -12 12
-17 13 -12 0 5 12 -1 27 -15 14 -13 22 -18 18 -10 -5 8 -24 28 -43 45 -44 39
-77 91 -96 152 -8 27 -15 42 -15 33z"/>
<path d="M3655 2359 c-4 -6 -5 -12 -2 -15 2 -3 7 2 10 11 7 17 1 20 -8 4z"/>
<path d="M2672 2329 c2 -6 8 -10 13 -10 5 0 11 4 13 10 2 6 -4 11 -13 11 -9 0
-15 -5 -13 -11z"/>
<path d="M3370 2326 c0 -9 7 -16 16 -16 17 0 14 22 -4 28 -7 2 -12 -3 -12 -12z"/>
<path d="M932 2310 c0 -14 2 -19 5 -12 2 6 2 18 0 25 -3 6 -5 1 -5 -13z"/>
<path d="M3633 2303 c-7 -15 -11 -28 -9 -31 6 -6 28 38 24 48 -2 5 -9 -3 -15
-17z"/>
<path d="M2490 2300 c0 -11 7 -20 15 -20 17 0 18 2 9 24 -9 23 -24 20 -24 -4z"/>
<path d="M2530 2284 c0 -14 4 -23 10 -19 6 3 10 15 10 26 0 10 -4 19 -10 19
-5 0 -10 -12 -10 -26z"/>
<path d="M3530 2289 c0 -24 23 -21 28 4 2 10 -3 17 -12 17 -10 0 -16 -9 -16
-21z"/>
<path d="M981 2144 c0 -11 3 -14 6 -6 3 7 2 16 -1 19 -3 4 -6 -2 -5 -13z"/>
<path d="M996 2107 c3 -10 9 -15 12 -12 3 3 0 11 -7 18 -10 9 -11 8 -5 -6z"/>
<path d="M5037 2091 c-4 -17 -3 -21 5 -13 5 5 8 16 6 23 -3 8 -7 3 -11 -10z"/>
<path d="M1010 2071 c0 -6 4 -13 10 -16 6 -3 7 1 4 9 -7 18 -14 21 -14 7z"/>
<path d="M1036 2025 c10 -27 81 -132 96 -141 6 -4 0 8 -15 28 -15 19 -27 38
-27 41 0 6 -45 76 -56 86 -3 3 -2 -3 2 -14z"/>
<path d="M4918 1893 c-27 -29 -57 -79 -41 -70 10 6 76 97 70 97 -2 0 -15 -12
-29 -27z"/>
<path d="M1165 1830 c38 -39 45 -45 45 -35 0 10 -63 75 -73 75 -6 0 7 -18 28
-40z"/>
<path d="M4788 1748 c-32 -32 -54 -58 -50 -58 4 0 34 27 67 60 33 33 55 59 50
58 -6 -1 -36 -28 -67 -60z"/>
<path d="M1285 1716 c89 -84 209 -165 335 -227 136 -67 139 -61 5 9 -127 66
-232 136 -337 223 l-73 61 70 -66z"/>
<path d="M4690 1660 c-8 -5 -12 -12 -9 -15 4 -3 12 1 19 10 14 17 11 19 -10 5z"/>
<path d="M4651 1633 c-7 -8 -11 -16 -8 -19 2 -2 10 2 17 11 17 20 9 27 -9 8z"/>
<path d="M2915 5250 c-3 -5 -1 -10 4 -10 6 0 11 5 11 10 0 6 -2 10 -4 10 -3 0
-8 -4 -11 -10z"/>
<path d="M3331 5244 c0 -11 3 -14 6 -6 3 7 2 16 -1 19 -3 4 -6 -2 -5 -13z"/>
<path d="M2474 5204 c-18 -14 -18 -15 4 -4 12 6 22 13 22 15 0 8 -5 6 -26 -11z"/>
<path d="M3295 5140 c-3 -5 -2 -10 4 -10 5 0 13 5 16 10 3 6 2 10 -4 10 -5 0
-13 -4 -16 -10z"/>
<path d="M2190 5060 c-8 -5 -10 -10 -5 -10 6 0 17 5 25 10 8 5 11 10 5 10 -5
0 -17 -5 -25 -10z"/>
<path d="M1910 4950 c-9 -6 -10 -10 -3 -10 6 0 15 5 18 10 8 12 4 12 -15 0z"/>
<path d="M1864 4924 c-18 -14 -18 -15 4 -4 12 6 22 13 22 15 0 8 -5 6 -26 -11z"/>
<path d="M5160 3611 c0 -5 9 -7 20 -4 11 3 20 7 20 9 0 2 -9 4 -20 4 -11 0
-20 -4 -20 -9z"/>
<path d="M399 3463 l-24 -28 28 24 c25 23 32 31 24 31 -2 0 -14 -12 -28 -27z"/>
<path d="M296 3283 c-6 -14 -5 -15 5 -6 7 7 10 15 7 18 -3 3 -9 -2 -12 -12z"/>
<path d="M5681 3204 c0 -11 3 -14 6 -6 3 7 2 16 -1 19 -3 4 -6 -2 -5 -13z"/>
<path d="M5530 2800 c-9 -6 -10 -10 -3 -10 6 0 15 5 18 10 8 12 4 12 -15 0z"/>
<path d="M5262 2705 c0 -16 2 -22 5 -12 2 9 2 23 0 30 -3 6 -5 -1 -5 -18z"/>
<path d="M710 2716 c0 -9 30 -14 35 -6 4 6 -3 10 -14 10 -12 0 -21 -2 -21 -4z"/>
<path d="M5288 2713 c7 -3 16 -2 19 1 4 3 -2 6 -13 5 -11 0 -14 -3 -6 -6z"/>
<path d="M722 2370 c0 -14 2 -19 5 -12 2 6 2 18 0 25 -3 6 -5 1 -5 -13z"/>
<path d="M5272 2350 c0 -14 2 -19 5 -12 2 6 2 18 0 25 -3 6 -5 1 -5 -13z"/>
<path d="M731 2314 c0 -11 3 -14 6 -6 3 7 2 16 -1 19 -3 4 -6 -2 -5 -13z"/>
<path d="M5261 2294 c0 -11 3 -14 6 -6 3 7 2 16 -1 19 -3 4 -6 -2 -5 -13z"/>
<path d="M1060 1706 c0 -2 8 -10 18 -17 15 -13 16 -12 3 4 -13 16 -21 21 -21
13z"/>
<path d="M1410 1466 c0 -2 7 -7 16 -10 8 -3 12 -2 9 4 -6 10 -25 14 -25 6z"/>
<path d="M1559 1395 c18 -8 38 -15 45 -15 6 1 -4 7 -23 15 -18 8 -38 15 -45
15 -6 -1 4 -7 23 -15z"/>
<path d="M1655 1360 c3 -4 14 -10 25 -13 11 -3 18 -2 15 3 -3 4 -14 10 -25 13
-11 3 -18 2 -15 -3z"/>
<path d="M1717 1339 c7 -7 15 -10 18 -7 3 3 -2 9 -12 12 -14 6 -15 5 -6 -5z"/>
<path d="M1858 1293 c6 -2 18 -2 25 0 6 3 1 5 -13 5 -14 0 -19 -2 -12 -5z"/>
<path d="M1910 1280 c8 -5 20 -10 25 -10 6 0 3 5 -5 10 -8 5 -19 10 -25 10 -5
0 -3 -5 5 -10z"/>
<path d="M4075 1280 c-13 -5 -14 -9 -5 -9 8 0 24 4 35 9 13 5 14 9 5 9 -8 0
-24 -4 -35 -9z"/>
<path d="M3985 1260 c-16 -7 -17 -9 -3 -9 9 -1 20 4 23 9 7 11 7 11 -20 0z"/>
<path d="M2035 1250 c11 -5 27 -9 35 -9 9 0 8 4 -5 9 -11 5 -27 9 -35 9 -9 0
-8 -4 5 -9z"/>
<path d="M3845 1230 l-30 -8 27 -1 c15 0 30 4 33 9 3 6 5 9 3 9 -2 -1 -16 -5
-33 -9z"/>
<path d="M3908 1233 c7 -3 16 -2 19 1 4 3 -2 6 -13 5 -11 0 -14 -3 -6 -6z"/>
<path d="M2218 1213 c6 -2 18 -2 25 0 6 3 1 5 -13 5 -14 0 -19 -2 -12 -5z"/>
<path d="M2268 1203 c7 -3 16 -2 19 1 4 3 -2 6 -13 5 -11 0 -14 -3 -6 -6z"/>
<path d="M2408 1183 c6 -2 18 -2 25 0 6 3 1 5 -13 5 -14 0 -19 -2 -12 -5z"/>
<path d="M3588 1183 c6 -2 18 -2 25 0 6 3 1 5 -13 5 -14 0 -19 -2 -12 -5z"/>
<path d="M2583 1163 c9 -2 25 -2 35 0 9 3 1 5 -18 5 -19 0 -27 -2 -17 -5z"/>
<path d="M3413 1163 c9 -2 25 -2 35 0 9 3 1 5 -18 5 -19 0 -27 -2 -17 -5z"/>
<path d="M2683 1153 c15 -2 37 -2 50 0 12 2 0 4 -28 4 -27 0 -38 -2 -22 -4z"/>
<path d="M3288 1153 c6 -2 18 -2 25 0 6 3 1 5 -13 5 -14 0 -19 -2 -12 -5z"/>
<path d="M3338 1153 c7 -3 16 -2 19 1 4 3 -2 6 -13 5 -11 0 -14 -3 -6 -6z"/>
<path d="M2963 1143 c9 -2 25 -2 35 0 9 3 1 5 -18 5 -19 0 -27 -2 -17 -5z"/>
</g>
</svg>
